REM DIRINDEX 1\2,1\3\5,1\3\6,1\4\7,1\4\8
REM DIRNAME folder01,folder02,folder03,folder04,folder05,folder06,folder07,folder08
TITLE ""
FILE "EG_E1.5_12.mp3" MP3
  TRACK 01 AUDIO
    TITLE "0:"
    INDEX 01 00:00:00
  TRACK 02 AUDIO
    TITLE "2:cjc139_0435"
    INDEX 01 00:00:17
  TRACK 03 AUDIO
    TITLE "0:"
    INDEX 01 00:03:08
  TRACK 04 AUDIO
    TITLE "2:cjc139_0436"
    INDEX 01 00:04:31
  TRACK 05 AUDIO
    TITLE "0:"
    INDEX 01 00:07:27
  TRACK 06 AUDIO
    TITLE "2:cjc139_0437"
    INDEX 01 00:08:50
  TRACK 07 AUDIO
    TITLE "0:"
    INDEX 01 00:10:63
  TRACK 08 AUDIO
    TITLE "2:cjc139_0438"
    INDEX 01 00:12:11
  TRACK 09 AUDIO
    TITLE "0:"
    INDEX 01 00:15:70
  TRACK 10 AUDIO
    TITLE "2:cjc139_0439"
    INDEX 01 00:17:18
  TRACK 11 AUDIO
    TITLE "0:"
    INDEX 01 00:21:25
  TRACK 12 AUDIO
    TITLE "2:cjc139_0440"
    INDEX 01 00:22:48
  TRACK 13 AUDIO
    TITLE "0:"
    INDEX 01 00:25:68
  TRACK 14 AUDIO
    TITLE "2:cjc139_0441"
    INDEX 01 00:27:14
  TRACK 15 AUDIO
    TITLE "0:"
    INDEX 01 00:30:63
  TRACK 16 AUDIO
    TITLE "2:cjc139_0442"
    INDEX 01 00:32:09
  TRACK 17 AUDIO
    TITLE "0:"
    INDEX 01 00:34:36
  TRACK 18 AUDIO
    TITLE "2:cjc139_0443"
    INDEX 01 00:35:57
  TRACK 19 AUDIO
    TITLE "0:"
    INDEX 01 00:38:59
  TRACK 20 AUDIO
    TITLE "2:cjc139_0444"
    INDEX 01 00:40:07
  TRACK 21 AUDIO
    TITLE "0:"
    INDEX 01 00:43:09
  TRACK 22 AUDIO
    TITLE "2:cjc139_0445"
    INDEX 01 00:44:28
  TRACK 23 AUDIO
    TITLE "0:"
    INDEX 01 00:46:49
  TRACK 24 AUDIO
    TITLE "2:cjc139_0446"
    INDEX 01 00:47:70
  TRACK 25 AUDIO
    TITLE "0:"
    INDEX 01 00:50:60
  TRACK 26 AUDIO
    TITLE "2:cjc139_0447"
    INDEX 01 00:52:08
  TRACK 27 AUDIO
    TITLE "0:"
    INDEX 01 00:54:66
  TRACK 28 AUDIO
    TITLE "2:cjc139_0448"
    INDEX 01 00:56:12
  TRACK 29 AUDIO
    TITLE "0:"
    INDEX 01 00:58:58
  TRACK 30 AUDIO
    TITLE "2:cjc139_0449"
    INDEX 01 01:00:06
  TRACK 31 AUDIO
    TITLE "0:"
    INDEX 01 01:03:37
  TRACK 32 AUDIO
    TITLE "2:cjc139_0450"
    INDEX 01 01:04:62
  TRACK 33 AUDIO
    TITLE "0:"
    INDEX 01 01:08:33
  TRACK 34 AUDIO
    TITLE "2:cjc139_0451"
    INDEX 01 01:09:56
  TRACK 35 AUDIO
    TITLE "0:"
    INDEX 01 01:12:40
  TRACK 36 AUDIO
    TITLE "2:cjc139_0452"
    INDEX 01 01:13:65
  TRACK 37 AUDIO
    TITLE "0:"
    INDEX 01 01:16:54
  TRACK 38 AUDIO
    TITLE "2:cjc139_0453"
    INDEX 01 01:18:02
  TRACK 39 AUDIO
    TITLE "0:"
    INDEX 01 01:20:53
  TRACK 40 AUDIO
    TITLE "2:cjc139_0454"
    INDEX 01 01:22:01
  TRACK 41 AUDIO
    TITLE "0:"
    INDEX 01 01:25:27
  TRACK 42 AUDIO
    TITLE "2:cjc139_0455"
    INDEX 01 01:26:50
  TRACK 43 AUDIO
    TITLE "0:"
    INDEX 01 01:30:48
  TRACK 44 AUDIO
    TITLE "2:cjc139_0456"
    INDEX 01 01:31:73
  TRACK 45 AUDIO
    TITLE "0:"
    INDEX 01 01:35:67
  TRACK 46 AUDIO
    TITLE "2:cjc139_0457"
    INDEX 01 01:37:15
  TRACK 47 AUDIO
    TITLE "0:"
    INDEX 01 01:40:74
  TRACK 48 AUDIO
    TITLE "2:cjc139_0458"
    INDEX 01 01:42:20
  TRACK 49 AUDIO
    TITLE "0:"
    INDEX 01 01:45:49
  TRACK 50 AUDIO
    TITLE "2:cjc139_0459"
    INDEX 01 01:46:74
  TRACK 51 AUDIO
    TITLE "0:"
    INDEX 01 01:50:07
  TRACK 52 AUDIO
    TITLE "2:cjc139_0460"
    INDEX 01 01:51:28
  TRACK 53 AUDIO
    TITLE "0:"
    INDEX 01 01:54:29
  TRACK 54 AUDIO
    TITLE "2:cjc139_0461"
    INDEX 01 01:55:50
  TRACK 55 AUDIO
    TITLE "0:"
    INDEX 01 01:59:16
  TRACK 56 AUDIO
    TITLE "2:cjc139_0462"
    INDEX 01 02:00:37
  TRACK 57 AUDIO
    TITLE "0:"
    INDEX 01 02:02:48
  TRACK 58 AUDIO
    TITLE "2:cjc139_0463"
    INDEX 01 02:03:73
  TRACK 59 AUDIO
    TITLE "0:"
    INDEX 01 02:05:54
  TRACK 60 AUDIO
    TITLE "2:cjc139_0464"
    INDEX 01 02:07:02
  TRACK 61 AUDIO
    TITLE "0:"
    INDEX 01 02:09:42
  TRACK 62 AUDIO
    TITLE "2:cjc139_0465"
    INDEX 01 02:10:63
  TRACK 63 AUDIO
    TITLE "0:"
    INDEX 01 02:13:65
  TRACK 64 AUDIO
    TITLE "2:cjc139_0466"
    INDEX 01 02:15:11
  TRACK 65 AUDIO
    TITLE "0:"
    INDEX 01 02:17:32
  TRACK 66 AUDIO
    TITLE "2:cjc139_0467"
    INDEX 01 02:18:53
  TRACK 67 AUDIO
    TITLE "0:"
    INDEX 01 02:20:71
  TRACK 68 AUDIO
    TITLE "2:cjc139_0468"
    INDEX 01 02:22:17
  TRACK 69 AUDIO
    TITLE "0:"
    INDEX 01 02:24:18
  TRACK 70 AUDIO
    TITLE "2:cjc139_0469"
    INDEX 01 02:25:39
  TRACK 71 AUDIO
    TITLE "0:"
    INDEX 01 02:28:10
